<?xml version="1.0" encoding="utf-8"?>
<!-- Generator: Adobe Illustrator 28.0.0, SVG Export Plug-In . SVG Version: 6.00 Build 0)  -->
<svg version="1.1" id="Capa_1" xmlns="http://www.w3.org/2000/svg" xmlns:xlink="http://www.w3.org/1999/xlink" x="0px" y="0px"
	 viewBox="0 0 1080 1080" style="enable-background:new 0 0 1080 1080;" xml:space="preserve">
<style type="text/css">
	.st0{fill:#6944f2;}
</style>
<g>
	<path class="st0" d="M853.97,536.64c-1.72-13.75-6.11-27.37-13.77-38.99c-1.17-1.77-11.86-15.98-13.48-14.3
		c-0.83,0.85,1.91,8.52,2.19,9.9c0.7,3.41,1.25,6.84,1.66,10.29c3.4,28.51-2.96,58.43-19.32,82.21c-4.47,6.5-9.61,12.51-14.56,18.65
		c-14.2,17.61-26.99,36.55-35.97,57.28c-1.89,4.1-3.86,9.49-5.9,16.2c-11.2,30.83-25.58,49.01-43.13,54.54l-23.02-2.9
		c-22.95,0-36.36-20.12-40.23-60.35v-17.21l5.6-46.04c17.97-46.04,34.28-69.06,48.94-69.06h2.9
		c-17.28,42.31-25.92,70.09-25.92,83.37l2.9,17.42c13.41,3.32,20.12,7.12,20.12,11.41l23.02-8.71v-17.21l37.33-109.08
		c0-13.41-13.41-23.02-40.23-28.83l-48.94,17.21c-47.84,30-71.75,77.91-71.75,143.71v5.81c0,22.28,3.65,41.48,10.9,57.64
		c-6.75-8.74-14.73-17.99-23.96-27.75c-57.1-22.67-85.65-45.55-85.65-68.64v-5.6H518l22.81,17.01
		c12.03,24.75,27.23,37.12,45.62,37.12h2.9c0-7.6,3.8-11.41,11.41-11.41l-11.41-80.05v-8.5l2.9-28.62l-28.62-19.91h-5.6
		l-11.41,17.21v51.43l-45.83-11.61c-32.35,0-48.53,8.57-48.53,25.71c0,32.22,21.91,62.7,65.74,91.45
		c19.77,5.81,34.01,12.51,42.72,20.12c22.95,28.07,34.42,48.04,34.42,59.93l-5.81,22.81h-2.9c-33.73-32.9-60.35-63.39-79.84-91.45
		c0-12.92-11.45-22.81-34.28-29.7c-27.88-73.57-41.83-128.31-41.83-164.23l2.49-15.35c0-11.06-5.05-18.73-15.14-23.02h-2.7
		l-2.49,2.7l-5.18-5.18h-10.16l-2.49,2.49c0,6.92-1.73,10.37-5.18,10.37l2.7,10.16l-2.7,7.67l10.16,107.01v81.71l2.7,2.49l4.98-4.98
		v-2.7l-2.49-2.49l2.49-2.49v-68.85h2.7l25.51,79.01c-26.13,12.17-43.13,25.79-51.01,40.85h-2.69l-28-209.24
		c0-19.77-5.12-31.66-15.35-35.67h-2.49l-2.49,2.49l-7.67-4.98h-7.67c-6.35,9.46-18.7,43.6-37.05,102.43v0
		c-7.51-5.09-11.85-28.79-11.85-28.79C259.7,432.76,207,434.21,207,434.21c36.05,43.41,15.59,126.03,15.59,126.03
		c0,30.66,43.57,82.3,43.57,82.3c-6.46-11.3-3.23-51.64-3.23-51.64l16.26,19.51c1.28,5.88,3.25,10.68,5.92,14.37
		c6.77,0,12.72,2.56,17.83,7.67h2.49l15.35-10.16v-10.37l-2.49-15.14l2.49-10.37h2.49l20.53,171.09c0,21.98,5.94,32.97,17.83,32.97
		v89.38h7.67v-81.71h2.49v33.18h2.49l2.69,2.7h2.49l2.49-2.7l-2.49-12.65v-17.83c0-8.57,3.39-12.86,10.16-12.86
		c0-17.97,19.56-40.92,58.69-68.85c0.6,0.69,1.21,1.48,1.82,2.31c-3.44,17.49-6.89,35.29-5.13,53.02
		c1.76,17.78,9.55,35.81,24.37,45.79c-1.26-5.77-1.94-11.67-2.02-17.58c-0.03-2.07,0.1-4.36,1.54-5.86c3.51-3.66,8.42,0.29,10.2,3.6
		c4,7.44,3.4,16.27,3.75,24.43c1.17,27.81,13.38,55.01,33.39,74.36c-3.07-20.14-6.1-40.7-2.69-60.79c1.01-5.96,3.02-12.13,7.26-16.7
		c4.35-4.67,11.75-8.8,18.3-7.77c6.25,0.98,6.53,7.44,7.86,12.37c1.6,5.93,4.07,11.58,7.97,16.38c-1.16-9.47,0.21-18.94,2.46-28.27
		c10.75,6.6,24.28,11.9,40.64,15.88h2.7c26.68-10.51,40.02-31.45,40.02-62.84c-0.41-9.34-3.8-19.92-10.13-31.71
		c16.19,17.2,39.32,28.54,69.44,33.97h28.83l23.02-8.71c21.66-14.22,38.2-39.72,49.64-76.48c0,0,0.01,0,0.01,0l8.33-18.63
		c7.98-13.9,17.38-26.72,26.02-40.17C853.11,599.04,857.89,567.92,853.97,536.64z"/>
	<path class="st0" d="M248.41,181.01c0,0,20.59-2.29,50.25,7.29c21.38,6.91,41.03,18.33,57.99,33.08l104.92,91.29
		c6.24,5.43,10.38,13,11.1,21.24c0.01,0.15,0.03,0.3,0.04,0.45c0.6,8.33-5.37,15.71-13.61,17.04c-17.29,2.8-72.26,10.37-127.73,4.15
		c-1.53-0.17-3-0.7-4.29-1.53C313.2,345.07,233.67,288.63,248.41,181.01z"/>
	<path class="st0" d="M699.28,343.83l101.91-47.15c1.56-0.72,3.24-1.11,4.95-1.15l66.79-1.55c0,0,1.61,12.91-11.3,22.59
		l-77.52,49.93c-24.69,15.9-56.28,16.78-81.61,1.92c-1.81-1.06-3.64-2.2-5.48-3.43c0,0-5-3.75-2.9-14.55
		C694.7,347.54,696.6,345.07,699.28,343.83z"/>
</g>
</svg>
